# xmcd CD database file
#
# Track frame offsets:
#	150
#	19552
#	38200
#	59952
#	78332
#	102957
#	120592
#	131902
#	151815
#	174790
#	195715
#
# Disc length: 2862 seconds
#
# Revision: 0
# Processed by: cddbd v1.5.1PL2 Copyright (c) Steve Scherf et al.
# Submitted via: CDex 1.51
#
DISCID=8b0b2c0b
DTITLE=林憶蓮 - 不如重新開始
DYEAR=1900
DGENRE=Other
TTITLE0=不如重新開始
TTITLE1=天大地大
TTITLE2=紅顏未老
TTITLE3=當我眼前只有?
TTITLE4=始終一天93翻天覆地版
TTITLE5=震撼
TTITLE6=寂寞派對 (音樂)
TTITLE7=假如讓?吻下去
TTITLE8=戀愛在不遠處等我
TTITLE9=當愛已成往事
TTITLE10=風中的歌
EXTD=
EXTT0=
EXTT1=
EXTT2=
EXTT3=
EXTT4=
EXTT5=
EXTT6=
EXTT7=
EXTT8=
EXTT9=
EXTT10=
PLAYORDER=
